#N canvas 0 16 1010 660 10;
#X obj 55 435 *~;
#X obj 54 530 *~;
#X obj 53 593 dac~;
#X obj 69 627 vsl 15 10 0 0.99 0 0 empty empty empty 0 -9 0 10 -262144
-1 -1 900 1;
#X obj 53 15 adc~;
#X obj 54 126 *~;
#X text 89 14 Entrada de Audio;
#X obj 85 111 hsl 100 15 0 1 0 0 empty empty empty -2 -8 0 10 -262144
-1 -1 0 1;
#X floatatom 82 127 5 0 0 0 - - -;
#X obj 55 210 *~ 1;
#X obj 76 174 tgl 15 0 entra empty empty 17 7 0 10 -262144 -1 -1 0
1;
#X obj 209 29 vsl 15 100 0 127 0 0 empty empty empty 0 -9 0 10 -262144
-1 -1 4957 1;
#X floatatom 209 133 5 0 0 0 - - -;
#X msg 225 56 70;
#X obj 225 27 loadbang;
#N canvas 449 115 486 380 ruido 0;
#X obj 144 167 env~;
#X floatatom 144 203 5 0 0 0 - - -;
#X obj 144 312 tgl 15 0 empty empty empty 17 7 0 10 -262144 -1 -1 0
1;
#X obj 144 284 change;
#X obj 144 105 inlet~;
#X text 60 102 audio in;
#X obj 254 105 inlet;
#X obj 144 338 outlet;
#X text 309 103 umbral nivel;
#X obj 144 248 > 60;
#X text 132 26 UMBRAL RUIDO;
#X connect 0 0 1 0;
#X connect 1 0 9 0;
#X connect 2 0 7 0;
#X connect 3 0 2 0;
#X connect 4 0 0 0;
#X connect 6 0 9 1;
#X connect 9 0 3 0;
#X restore 76 149 pd ruido;
#X text 245 134 Umbral de Ruido;
#X text 138 93 Amplitud;
#X text 91 171 Compuerta-Filtro;
#X msg 511 608 0;
#X obj 129 401 loadbang;
#X obj 511 587 bng 15 250 50 0 empty empty empty 17 7 0 10 -262144
-1 -1;
#X msg 82 90 0;
#X obj 82 69 bng 15 250 50 0 empty cerrado empty 17 7 0 10 -262144
-1 -1;
#X obj 109 69 bng 15 250 50 0 empty abierto empty 17 7 0 10 -262144
-1 -1;
#X msg 109 90 0.3;
#X obj 539 536 tgl 15 0 empty entra empty 17 7 0 10 -262144 -1 -1 0
1;
#X obj 539 552 == 1;
#X obj 539 570 select 1;
#X obj 559 11 r puerta;
#X msg 539 608 0.01;
#X obj 56 326 delwrite~ buff1 10000;
#X obj 55 411 vd~ buff1;
#X obj 55 389 sig~;
#X floatatom -15 373 5 0 0 0 - - -;
#X msg 182 418 0;
#X obj -15 337 loadbang;
#X msg -15 355 5000;
#X obj 226 435 *~;
#X obj 300 401 loadbang;
#X obj 226 389 sig~;
#X msg 353 418 0;
#X obj 227 326 delwrite~ buff2 10000;
#X obj 55 250 throw~ b1;
#X msg 123 233 set b1;
#X msg 173 233 set b2;
#X obj 123 217 bng 15 250 50 0 empty setear1 empty 17 7 0 10 -262144
-1 -1;
#X obj 173 217 bng 15 250 50 0 empty setear2 empty 17 7 0 10 -262144
-1 -1;
#X obj 226 411 vd~ buff2;
#X obj 56 298 catch~ b1;
#X obj 227 298 catch~ b2;
#X obj 396 435 *~;
#X obj 470 401 loadbang;
#X obj 396 389 sig~;
#X msg 523 418 0;
#X obj 397 298 catch~ b3;
#X obj 396 411 vd~ buff3;
#X obj 397 326 delwrite~ buff3 10000;
#X obj 556 435 *~;
#X obj 630 401 loadbang;
#X obj 556 389 sig~;
#X msg 683 418 0;
#X obj 726 435 *~;
#X obj 800 401 loadbang;
#X obj 726 389 sig~;
#X msg 853 418 0;
#X obj 557 298 catch~ b4;
#X obj 557 326 delwrite~ buff4 10000;
#X obj 556 411 vd~ buff4;
#X obj 727 298 catch~ b5;
#X obj 727 326 delwrite~ buff5 10000;
#X obj 726 411 vd~ buff5;
#X obj 223 217 bng 15 250 50 0 empty setear3 empty 17 7 0 10 -262144
-1 -1;
#X obj 273 217 bng 15 250 50 0 empty setear4 empty 17 7 0 10 -262144
-1 -1;
#X obj 323 217 bng 15 250 50 0 empty setear5 empty 17 7 0 10 -262144
-1 -1;
#X msg 223 233 set b3;
#X msg 273 233 set b4;
#X msg 323 233 set b5;
#X obj 625 112 bng 15 250 50 0 cerrado empty empty 17 7 0 10 -262144
-1 -1;
#X obj 557 87 onebang;
#X obj 559 66 bng 15 250 50 0 empty empty empty 17 7 0 10 -262144 -1
-1;
#X obj 596 65 bng 15 250 50 0 empty empty empty 17 7 0 10 -262144 -1
-1;
#X obj 557 112 bng 15 250 50 0 abierto empty empty 17 7 0 10 -262144
-1 -1;
#X obj 625 88 onebang;
#X obj 625 67 bng 15 250 50 0 empty empty empty 17 7 0 10 -262144 -1
-1;
#X obj 664 66 bng 15 250 50 0 empty empty empty 17 7 0 10 -262144 -1
-1;
#X obj 557 133 f;
#X obj 588 133 + 1;
#X obj 557 174 hradio 15 1 0 7 empty empty empty 0 -8 0 10 -262144
-1 -1 2;
#X obj 574 220 bng 15 250 50 0 setear2 empty empty 17 7 0 10 -262144
-1 -1;
#X obj 591 220 bng 15 250 50 0 setear3 empty empty 17 7 0 10 -262144
-1 -1;
#X obj 557 220 bng 15 250 50 0 setear1 empty empty 17 7 0 10 -262144
-1 -1;
#X obj 609 220 bng 15 250 50 0 setear4 empty empty 17 7 0 10 -262144
-1 -1;
#X obj 626 220 bng 15 250 50 0 setear5 empty empty 17 7 0 10 -262144
-1 -1;
#X obj 182 369 bng 15 250 50 0 empty setear1 empty 17 7 0 10 -262144
-1 -1;
#X obj 353 369 bng 15 250 50 0 empty setear2 empty 17 7 0 10 -262144
-1 -1;
#X obj 523 369 bng 15 250 50 0 empty setear3 empty 17 7 0 10 -262144
-1 -1;
#X obj 683 369 bng 15 250 50 0 empty setear4 empty 17 7 0 10 -262144
-1 -1;
#X obj 853 369 bng 15 250 50 0 empty setear5 empty 17 7 0 10 -262144
-1 -1;
#X msg 129 418 0.9;
#X msg 300 418 0.9;
#X msg 470 418 0.9;
#X msg 630 418 0.9;
#X msg 800 418 0.9;
#X obj 129 384 delay 5001;
#X obj 300 384 delay 5001;
#X obj 470 384 delay 5001;
#X obj 630 384 delay 5001;
#X obj 800 384 delay 5001;
#X obj 886 435 *~;
#X obj 960 401 loadbang;
#X obj 886 389 sig~;
#X msg 1013 418 0;
#X obj 1013 369 bng 15 250 50 0 empty setear6 empty 17 7 0 10 -262144
-1 -1;
#X msg 960 418 0.9;
#X obj 960 384 delay 5001;
#X obj 886 411 vd~ buff6;
#X obj 887 298 catch~ b6;
#X obj 887 326 delwrite~ buff6 10000;
#X obj 1046 435 *~;
#X obj 1121 401 loadbang;
#X obj 1046 389 sig~;
#X msg 1173 418 0;
#X obj 1173 369 bng 15 250 50 0 empty setear7 empty 17 7 0 10 -262144
-1 -1;
#X msg 1121 418 0.9;
#X obj 1121 384 delay 5001;
#X obj 1047 298 catch~ b7;
#X obj 1047 326 delwrite~ buff7 10000;
#X obj 1046 411 vd~ buff7;
#X obj 374 217 bng 15 250 50 0 empty setear6 empty 17 7 0 10 -262144
-1 -1;
#X msg 374 233 set b6;
#X obj 424 217 bng 15 250 50 0 empty setear7 empty 17 7 0 10 -262144
-1 -1;
#X msg 424 233 set b7;
#X obj 557 154 % 7;
#X obj 557 193 route 0 1 2 3 4 5 6;
#X obj 644 220 bng 15 250 50 0 setear6 empty empty 17 7 0 10 -262144
-1 -1;
#X obj 662 220 bng 15 250 50 0 setear7 empty empty 17 7 0 10 -262144
-1 -1;
#X obj 584 587 delay 100;
#X msg 584 608 1;
#X obj 559 32 moses 0.003;
#X obj 54 566 lop~;
#X obj 239 533 r puerta;
#X obj 238 565 autoscale 100 5000;
#X connect 0 0 1 0;
#X connect 0 0 31 0;
#X connect 1 0 140 0;
#X connect 3 0 1 1;
#X connect 4 0 5 0;
#X connect 4 1 5 0;
#X connect 5 0 15 0;
#X connect 5 0 9 0;
#X connect 7 0 8 0;
#X connect 7 0 5 1;
#X connect 9 0 43 0;
#X connect 10 0 9 1;
#X connect 11 0 12 0;
#X connect 12 0 15 1;
#X connect 13 0 11 0;
#X connect 14 0 13 0;
#X connect 15 0 10 0;
#X connect 19 0 3 0;
#X connect 20 0 99 0;
#X connect 21 0 19 0;
#X connect 22 0 7 0;
#X connect 23 0 22 0;
#X connect 24 0 25 0;
#X connect 25 0 7 0;
#X connect 26 0 27 0;
#X connect 27 0 28 0;
#X connect 28 0 30 0;
#X connect 28 1 137 0;
#X connect 29 0 139 0;
#X connect 30 0 3 0;
#X connect 32 0 0 0;
#X connect 33 0 32 0;
#X connect 34 0 33 0;
#X connect 34 0 53 0;
#X connect 34 0 60 0;
#X connect 34 0 64 0;
#X connect 34 0 40 0;
#X connect 34 0 111 0;
#X connect 34 0 121 0;
#X connect 35 0 0 1;
#X connect 36 0 37 0;
#X connect 37 0 34 0;
#X connect 38 0 42 0;
#X connect 38 0 1 0;
#X connect 39 0 100 0;
#X connect 40 0 48 0;
#X connect 41 0 38 1;
#X connect 44 0 43 0;
#X connect 45 0 43 0;
#X connect 46 0 44 0;
#X connect 47 0 45 0;
#X connect 48 0 38 0;
#X connect 49 0 31 0;
#X connect 50 0 42 0;
#X connect 51 0 1 0;
#X connect 51 0 57 0;
#X connect 52 0 101 0;
#X connect 53 0 56 0;
#X connect 54 0 51 1;
#X connect 55 0 57 0;
#X connect 56 0 51 0;
#X connect 58 0 1 0;
#X connect 58 0 67 0;
#X connect 59 0 102 0;
#X connect 60 0 68 0;
#X connect 61 0 58 1;
#X connect 62 0 1 0;
#X connect 62 0 70 0;
#X connect 63 0 103 0;
#X connect 64 0 71 0;
#X connect 65 0 62 1;
#X connect 66 0 67 0;
#X connect 68 0 58 0;
#X connect 69 0 70 0;
#X connect 71 0 62 0;
#X connect 72 0 75 0;
#X connect 73 0 76 0;
#X connect 74 0 77 0;
#X connect 75 0 43 0;
#X connect 76 0 43 0;
#X connect 77 0 43 0;
#X connect 79 0 82 0;
#X connect 80 0 79 0;
#X connect 81 0 79 1;
#X connect 82 0 86 0;
#X connect 83 0 78 0;
#X connect 84 0 83 0;
#X connect 85 0 83 1;
#X connect 86 0 87 0;
#X connect 86 0 133 0;
#X connect 87 0 86 1;
#X connect 88 0 134 0;
#X connect 94 0 35 0;
#X connect 94 0 104 0;
#X connect 95 0 41 0;
#X connect 95 0 105 0;
#X connect 96 0 54 0;
#X connect 96 0 106 0;
#X connect 97 0 61 0;
#X connect 97 0 107 0;
#X connect 98 0 65 0;
#X connect 98 0 108 0;
#X connect 99 0 0 1;
#X connect 100 0 38 1;
#X connect 101 0 51 1;
#X connect 102 0 58 1;
#X connect 103 0 62 1;
#X connect 104 0 99 0;
#X connect 105 0 100 0;
#X connect 106 0 101 0;
#X connect 107 0 102 0;
#X connect 108 0 103 0;
#X connect 109 0 118 0;
#X connect 109 0 1 0;
#X connect 110 0 114 0;
#X connect 111 0 116 0;
#X connect 112 0 109 1;
#X connect 113 0 112 0;
#X connect 113 0 115 0;
#X connect 114 0 109 1;
#X connect 115 0 114 0;
#X connect 116 0 109 0;
#X connect 117 0 118 0;
#X connect 119 0 127 0;
#X connect 119 0 1 0;
#X connect 120 0 124 0;
#X connect 121 0 128 0;
#X connect 122 0 119 1;
#X connect 123 0 122 0;
#X connect 123 0 125 0;
#X connect 124 0 119 1;
#X connect 125 0 124 0;
#X connect 126 0 127 0;
#X connect 128 0 119 0;
#X connect 129 0 130 0;
#X connect 130 0 43 0;
#X connect 131 0 132 0;
#X connect 132 0 43 0;
#X connect 133 0 88 0;
#X connect 134 0 91 0;
#X connect 134 1 89 0;
#X connect 134 2 90 0;
#X connect 134 3 92 0;
#X connect 134 4 93 0;
#X connect 134 5 135 0;
#X connect 134 6 136 0;
#X connect 137 0 138 0;
#X connect 138 0 3 0;
#X connect 139 0 81 0;
#X connect 139 0 84 0;
#X connect 139 1 80 0;
#X connect 139 1 85 0;
#X connect 140 0 2 0;
#X connect 140 0 2 1;
#X connect 141 0 142 0;
#X connect 142 0 140 1;
