#N canvas 636 69 447 346 10;
#X obj 236 90 r puerta;
#X obj 66 211 sendOSC;
#X msg 66 112 connect localhost 12000;
#X msg 85 165 disconnect;
#X msg 158 165 ];
#X msg 294 165 [;
#X msg 199 164 send /f \$1;
#X obj 236 133 t b f b;
#X obj 66 82 loadbang;
#X connect 0 0 7 0;
#X connect 2 0 1 0;
#X connect 3 0 1 0;
#X connect 4 0 1 0;
#X connect 5 0 1 0;
#X connect 6 0 1 0;
#X connect 7 0 4 0;
#X connect 7 1 6 0;
#X connect 7 2 5 0;
#X connect 8 0 2 0;
